<svg width="24" height="14" viewBox="0 0 24 14" fill="none" xmlns="http://www.w3.org/2000/svg">
<path fill-rule="evenodd" clip-rule="evenodd" d="M8.66667 0C6.31569 0 4.37075 1.73847 4.04726 4H3C1.34315 4 0 5.34315 0 7V10C0 11.1046 0.89543 12 2 12H2.33682C2.89855 13.1825 4.1038 14 5.5 14C6.8962 14 8.10145 13.1825 8.66318 12H15.3368C15.8985 13.1825 17.1038 14 18.5 14C19.9237 14 21.1489 13.1499 21.6956 11.9297C23.0142 11.6363 24 10.4596 24 9.05263C24 6.26214 21.7379 4 18.9474 4H17.7835C17.1169 1.68967 14.9865 0 12.4615 0H8.66667ZM12.4615 2H8.66667C7.42411 2 6.38004 2.84985 6.08401 4H15.6489C15.0766 2.81639 13.8644 2 12.4615 2ZM21.8662 9.53829C21.9512 9.39627 22 9.23015 22 9.05263C22 7.36671 20.6333 6 18.9474 6H3C2.44772 6 2 6.44772 2 7L2 10H2.03544C2.27806 8.30385 3.73676 7 5.5 7C7.26324 7 8.72194 8.30385 8.96456 10H15.0354C15.2781 8.30385 16.7368 7 18.5 7C20.0995 7 21.4484 8.07291 21.8662 9.53829ZM5.5 12C6.32843 12 7 11.3284 7 10.5C7 9.67157 6.32843 9 5.5 9C4.67157 9 4 9.67157 4 10.5C4 11.3284 4.67157 12 5.5 12ZM18.5 12C19.3284 12 20 11.3284 20 10.5C20 9.67157 19.3284 9 18.5 9C17.6716 9 17 9.67157 17 10.5C17 11.3284 17.6716 12 18.5 12Z" fill="#009FE2"/>
</svg>
