<svg width="6" height="8" viewBox="0 0 6 8" fill="none" xmlns="http://www.w3.org/2000/svg">
<path d="M2.52667 4.00001L4.88667 1.64001C5.01084 1.5151 5.08053 1.34613 5.08053 1.17001C5.08053 0.993883 5.01084 0.824915 4.88667 0.700006C4.82469 0.637521 4.75096 0.587925 4.66972 0.554079C4.58848 0.520233 4.50134 0.502808 4.41334 0.502808C4.32533 0.502808 4.23819 0.520233 4.15695 0.554079C4.07571 0.587925 4.00198 0.637521 3.94 0.700006L1.11334 3.52667C1.05085 3.58865 1.00125 3.66238 0.967409 3.74362C0.933563 3.82486 0.916138 3.912 0.916138 4.00001C0.916138 4.08801 0.933563 4.17515 0.967409 4.25639C1.00125 4.33763 1.05085 4.41136 1.11334 4.47334L3.94 7.33334C4.0023 7.39513 4.07617 7.44401 4.1574 7.47719C4.23862 7.51036 4.3256 7.52718 4.41334 7.52667C4.50107 7.52718 4.58805 7.51036 4.66927 7.47719C4.7505 7.44401 4.82438 7.39513 4.88667 7.33334C5.01084 7.20843 5.08053 7.03946 5.08053 6.86334C5.08053 6.68722 5.01084 6.51825 4.88667 6.39334L2.52667 4.00001Z" fill="#009FE2"/>
</svg>
